# xmcd
#
# Track frame offsets:
#	182
#	15315
#	34312
#	49835
#	68372
#	93140
#	116742
#	137452
#	161700
#	183430
#	203792
#	224657
#	236887
#	249877
#	282717
#
# Disc length: 4001 seconds
#
# Revision: 0
# Processed by: cddbd v1.4PL0 Copyright (c) Steve Scherf et al.
# Submitted via: MusicWizard 6.0.1
#
DISCID=d50f9f0f
DTITLE=Various Artist - Blues Feeling
DYEAR=1993
DGENRE=Blues
TTITLE0=Gary Moore - Parisienne Walkaways
TTITLE1=John Mayall - Wake Up Cal
TTITLE2=Chris Whitley - Poison Girl
TTITLE3=Das Combo - One More Cruisade
TTITLE4=Blue Line - í´m A Real Man
TTITLE5=Joe White - Good In Blues
TTITLE6=Buddy Guy - Feeling Like Rain
TTITLE7=Stevie Ray - Texas Flood
TTITLE8=Thunderbirds - Mistake Number One
TTITLE9=Larry Carlton - Crazy Mama
TTITLE10=Roland - Mailbox Blues
TTITLE11=John Hammond - It Hurts Me To
TTITLE12=John Logan - Soul Mil
TTITLE13=Robert Cray - I Was Warned
TTITLE14=Tajmayal - Blues With A Feeling
EXTD=
EXTT0=
EXTT1=
EXTT2=
EXTT3=
EXTT4=
EXTT5=
EXTT6=
EXTT7=
EXTT8=
EXTT9=
EXTT10=
EXTT11=
EXTT12=
EXTT13=
EXTT14=
PLAYORDER=
